<?xml version="1.0" standalone="no"?>
<!DOCTYPE svg PUBLIC "-//W3C//DTD SVG 20010904//EN"
 "http://www.w3.org/TR/2001/REC-SVG-20010904/DTD/svg10.dtd">
<svg version="1.0" xmlns="http://www.w3.org/2000/svg"
 width="512.000000pt" height="512.000000pt" viewBox="0 0 512.000000 512.000000"
 preserveAspectRatio="xMidYMid meet">
<metadata>
Created by potrace 1.11, written by Peter Selinger 2001-2013
</metadata>
<g transform="translate(0.000000,512.000000) scale(0.100000,-0.100000)"
fill="#000000" stroke="none">
<path d="M0 2560 l0 -2560 2560 0 2560 0 0 2560 0 2560 -2560 0 -2560 0 0
-2560z m3440 1071 l0 -129 -117 -6 c-240 -13 -261 -16 -293 -42 l-29 -25 -3
-337 c-3 -379 -3 -378 -78 -451 -23 -22 -61 -47 -86 -57 -24 -9 -44 -20 -44
-24 0 -4 20 -15 44 -24 25 -10 63 -35 86 -57 74 -72 74 -73 80 -451 5 -326 6
-338 26 -358 27 -27 80 -39 174 -40 41 0 112 -3 158 -7 l82 -6 0 -128 0 -129
-272 0 c-377 1 -473 21 -556 115 -69 79 -76 117 -82 480 -5 285 -7 324 -24
357 -23 48 -69 76 -146 90 l-60 12 0 146 0 147 49 5 c71 7 122 37 151 89 25
44 25 46 31 369 7 365 12 400 76 471 20 22 59 52 86 66 85 43 158 51 465 52
l282 1 0 -129z m-1290 -1066 l0 -1175 -235 0 -235 0 0 1175 0 1175 235 0 235
0 0 -1175z"/>
</g>
</svg>
